<svg id="Layer_1" data-name="Layer 1" xmlns="http://www.w3.org/2000/svg" viewBox="0 0 144.5 51"><defs><style>.cls-1{fill:#fff;}</style></defs><title>logo</title><polygon class="cls-1" points="6.37 44.85 12.96 44.85 12.96 46.5 6.37 46.5 6.37 48.15 14.6 48.15 14.6 43.21 8.02 43.21 8.02 41.56 14.6 41.56 14.6 39.91 6.37 39.91 6.37 44.85"/><polygon class="cls-1" points="47.54 44.85 54.13 44.85 54.13 46.5 47.54 46.5 47.54 48.15 55.78 48.15 55.78 43.21 49.19 43.21 49.19 41.56 55.78 41.56 55.78 39.91 47.54 39.91 47.54 44.85"/><polygon class="cls-1" points="88.72 48.15 96.96 48.15 96.96 46.5 90.37 46.5 90.37 44.85 96.96 44.85 96.96 43.21 90.37 43.21 90.37 41.56 96.96 41.56 96.96 39.91 88.72 39.91 88.72 48.15"/><polygon class="cls-1" points="109.31 48.15 110.96 48.15 110.96 41.56 112.6 41.56 112.6 48.15 114.25 48.15 114.25 41.56 115.9 41.56 115.9 48.15 117.54 48.15 117.54 39.91 109.31 39.91 109.31 48.15"/><polygon class="cls-1" points="33.54 43.21 28.6 43.21 28.6 39.91 26.96 39.91 26.96 44.85 30.25 44.85 30.25 48.15 31.9 48.15 31.9 44.85 35.19 44.85 35.19 39.91 33.54 39.91 33.54 43.21"/><polygon class="cls-1" points="138.13 41.56 138.13 39.91 129.9 39.91 129.9 44.85 136.49 44.85 136.49 46.5 129.9 46.5 129.9 48.15 138.13 48.15 138.13 43.21 131.54 43.21 131.54 41.56 138.13 41.56"/><polygon class="cls-1" points="68.13 41.56 71.43 41.56 71.43 48.15 73.07 48.15 73.07 41.56 76.37 41.56 76.37 39.91 68.13 39.91 68.13 41.56"/><path class="cls-1" d="M22.84,2.85H2.25V31.68H22.84V27.56H27V19.32H22.84V15.21H27V7H22.84V2.85ZM18.72,27.56H10.49V19.32h8.24v8.24Zm0-12.35H10.49V7h8.24v8.24Z"/><path class="cls-1" d="M138.13,7V2.85H121.66V7h-4.12V27.56h4.12v4.12h16.47V27.56h4.12V7h-4.12ZM125.78,27.56V7H134V27.56h-8.24Z"/><polygon class="cls-1" points="105.19 23.44 96.96 23.44 96.96 2.85 88.72 2.85 88.72 23.44 92.84 23.44 92.84 27.56 96.96 27.56 96.96 31.68 105.19 31.68 105.19 27.56 109.31 27.56 109.31 23.44 113.43 23.44 113.43 2.85 105.19 2.85 105.19 23.44"/><path class="cls-1" d="M80.49,2.85H64V7H59.9V31.68h8.24V19.32h8.24V31.68H84.6V7H80.49V2.85ZM76.37,15.21H68.13V7h8.24v8.24Z"/><path class="cls-1" d="M51.66,2.85H31.07V31.68h8.24V19.32h8.24V31.68h8.24V19.32H51.66V15.21h4.12V7H51.66V2.85ZM47.54,15.21H39.31V7h8.24v8.24Z"/></svg>