<svg id="visual" viewBox="0 0 900 600" width="900" height="600" xmlns="http://www.w3.org/2000/svg" xmlns:xlink="http://www.w3.org/1999/xlink" version="1.1"><rect x="0" y="0" width="900" height="600" fill="#001220"></rect><path d="M0 379L21.5 388.3C43 397.7 86 416.3 128.8 412C171.7 407.7 214.3 380.3 257.2 377.2C300 374 343 395 385.8 402.7C428.7 410.3 471.3 404.7 514.2 408.8C557 413 600 427 642.8 420C685.7 413 728.3 385 771.2 383.2C814 381.3 857 405.7 878.5 417.8L900 430L900 601L878.5 601C857 601 814 601 771.2 601C728.3 601 685.7 601 642.8 601C600 601 557 601 514.2 601C471.3 601 428.7 601 385.8 601C343 601 300 601 257.2 601C214.3 601 171.7 601 128.8 601C86 601 43 601 21.5 601L0 601Z" fill="#0d2036"></path><path d="M0 432L21.5 439.8C43 447.7 86 463.3 128.8 457.7C171.7 452 214.3 425 257.2 420.3C300 415.7 343 433.3 385.8 436.3C428.7 439.3 471.3 427.7 514.2 427.2C557 426.7 600 437.3 642.8 448C685.7 458.7 728.3 469.3 771.2 462.8C814 456.3 857 432.7 878.5 420.8L900 409L900 601L878.5 601C857 601 814 601 771.2 601C728.3 601 685.7 601 642.8 601C600 601 557 601 514.2 601C471.3 601 428.7 601 385.8 601C343 601 300 601 257.2 601C214.3 601 171.7 601 128.8 601C86 601 43 601 21.5 601L0 601Z" fill="#312957"></path><path d="M0 440L21.5 443.5C43 447 86 454 128.8 458.7C171.7 463.3 214.3 465.7 257.2 462C300 458.3 343 448.7 385.8 443.8C428.7 439 471.3 439 514.2 445.7C557 452.3 600 465.7 642.8 471.5C685.7 477.3 728.3 475.7 771.2 477.3C814 479 857 484 878.5 486.5L900 489L900 601L878.5 601C857 601 814 601 771.2 601C728.3 601 685.7 601 642.8 601C600 601 557 601 514.2 601C471.3 601 428.7 601 385.8 601C343 601 300 601 257.2 601C214.3 601 171.7 601 128.8 601C86 601 43 601 21.5 601L0 601Z" fill="#6b2365"></path><path d="M0 511L21.5 514.8C43 518.7 86 526.3 128.8 523C171.7 519.7 214.3 505.3 257.2 497.7C300 490 343 489 385.8 488.3C428.7 487.7 471.3 487.3 514.2 496C557 504.7 600 522.3 642.8 530.3C685.7 538.3 728.3 536.7 771.2 531C814 525.3 857 515.7 878.5 510.8L900 506L900 601L878.5 601C857 601 814 601 771.2 601C728.3 601 685.7 601 642.8 601C600 601 557 601 514.2 601C471.3 601 428.7 601 385.8 601C343 601 300 601 257.2 601C214.3 601 171.7 601 128.8 601C86 601 43 601 21.5 601L0 601Z" fill="#a50057"></path><path d="M0 530L21.5 533.8C43 537.7 86 545.3 128.8 550C171.7 554.7 214.3 556.3 257.2 559.5C300 562.7 343 567.3 385.8 569.5C428.7 571.7 471.3 571.3 514.2 570.5C557 569.7 600 568.3 642.8 561.3C685.7 554.3 728.3 541.7 771.2 536C814 530.3 857 531.7 878.5 532.3L900 533L900 601L878.5 601C857 601 814 601 771.2 601C728.3 601 685.7 601 642.8 601C600 601 557 601 514.2 601C471.3 601 428.7 601 385.8 601C343 601 300 601 257.2 601C214.3 601 171.7 601 128.8 601C86 601 43 601 21.5 601L0 601Z" fill="#cc0b30"></path></svg>